<?xml version="1.0" encoding="UTF-8"?>
<svg id="Layer_2" data-name="Layer 2" xmlns="http://www.w3.org/2000/svg" viewBox="0 0 568.96 222.96">
  <defs>
    <style>
      .cls-1 {
        fill: none;
        stroke: #f3180a;
        stroke-miterlimit: 10;
        stroke-width: 3px;
      }

      .cls-2 {
        fill: #f3180a;
        stroke-width: 0px;
      }
    </style>
  </defs>
  <g id="Layer_2-2" data-name="Layer 2">
    <g>
      <polyline class="cls-1" points="183.05 97.09 128.73 3 2.6 221.46 254.86 221.46 239.42 194.73"/>
      <g>
        <path class="cls-2" d="M123.71,170.98v-41.83h-15.55v-8.35h40.46v8.35h-15.48v41.83h-9.43Z"/>
        <path class="cls-2" d="M154.24,170.98v-50.18h16.56c4.08,0,7.37.59,9.86,1.76,2.5,1.18,4.33,2.86,5.51,5.04,1.18,2.18,1.76,4.76,1.76,7.74,0,4.61-1.31,8.17-3.92,10.69-2.62,2.52-6.35,3.92-11.2,4.21-1.1.05-2.23.07-3.38.07h-5.9v20.66h-9.29ZM163.53,141.96h6.34c1.58,0,3.04-.18,4.36-.54,1.32-.36,2.39-1.01,3.2-1.94.82-.94,1.22-2.27,1.22-4s-.41-3.12-1.22-4.03c-.82-.91-1.88-1.52-3.2-1.84-1.32-.31-2.77-.47-4.36-.47h-6.34v12.82ZM181.53,170.98l-12.6-21.74,9.5-1.15,13.82,22.9h-10.73Z"/>
        <path class="cls-2" d="M198.16,170.98v-50.18h9.29v50.18h-9.29Z"/>
        <path class="cls-2" d="M212.85,170.98l20.16-50.18h6.98l20.16,50.18h-10.15l-13.39-36.43-13.61,36.43h-10.15ZM226.09,161.19l2.88-8.35h15.12l3.02,8.35h-21.02Z"/>
        <path class="cls-2" d="M265.62,170.98v-50.18h9.58l23.4,38.02h-2.3v-38.02h9.29v50.18h-9.65l-23.33-38.09h2.3v38.09h-9.29Z"/>
        <path class="cls-2" d="M336.69,172.13c-4.61,0-8.67-1.11-12.17-3.31-3.5-2.21-6.26-5.28-8.28-9.22-2.02-3.93-3.02-8.52-3.02-13.75s1.01-9.8,3.02-13.72,4.83-6.97,8.46-9.18c3.62-2.21,7.81-3.31,12.56-3.31,5.33,0,9.92,1.33,13.79,4,3.86,2.66,6.64,6.32,8.32,10.98l-8.78,3.24c-1.06-2.93-2.72-5.21-5-6.84-2.28-1.63-5.05-2.45-8.32-2.45-2.98,0-5.58.7-7.81,2.09-2.23,1.39-3.94,3.37-5.11,5.94-1.18,2.57-1.76,5.65-1.76,9.25s.59,6.7,1.76,9.29c1.18,2.59,2.88,4.58,5.11,5.98s4.83,2.09,7.81,2.09c1.54,0,3.12-.22,4.75-.65,1.63-.43,3.13-1.19,4.5-2.27,1.37-1.08,2.47-2.58,3.31-4.5.84-1.92,1.26-4.37,1.26-7.34v-2.88l2.09,6.48h-14.4v-8.35h20.59v27.29h-8.21l-1.3-8.14,1.58,1.22c-.86,1.78-2.04,3.26-3.53,4.46-1.49,1.2-3.18,2.1-5.08,2.7s-3.95.9-6.16.9Z"/>
        <path class="cls-2" d="M386.94,172.13c-6.34,0-11.12-1.61-14.36-4.82-3.24-3.21-4.86-8.04-4.86-14.47v-32.04h9.29v30.96c0,2.59.28,4.77.83,6.52.55,1.75,1.56,3.07,3.02,3.96,1.46.89,3.49,1.33,6.08,1.33s4.62-.44,6.08-1.33c1.46-.89,2.48-2.21,3.06-3.96.58-1.75.86-3.9.86-6.44v-31.03h9.29v31.68c0,6.53-1.63,11.44-4.9,14.72-3.26,3.29-8.06,4.93-14.4,4.93Z"/>
        <path class="cls-2" d="M415.45,170.98v-50.18h9.29v41.83h21.38v8.35h-30.67Z"/>
        <path class="cls-2" d="M447.49,170.98l20.16-50.18h6.98l20.16,50.18h-10.15l-13.39-36.43-13.61,36.43h-10.15ZM460.74,161.19l2.88-8.35h15.12l3.02,8.35h-21.02Z"/>
        <path class="cls-2" d="M505.02,170.98v-41.83h-15.55v-8.35h40.46v8.35h-15.48v41.83h-9.43Z"/>
        <path class="cls-2" d="M535.55,170.98v-50.18h33.41v8.35h-24.12v11.95h22.54v8.28h-22.54v13.25h24.12v8.35h-33.41Z"/>
      </g>
    </g>
  </g>
</svg>